<mxfile host="app.diagrams.net" modified="2022-05-10T06:11:56.416Z" agent="5.0 (Windows NT 10.0; Win64; x64) AppleWebKit/537.36 (KHTML, like Gecko) Chrome/100.0.4896.127 Safari/537.36 Edg/100.0.1185.50" etag="BG-xMISaDlQH-tBAKUT-" version="17.4.3" type="github">
  <diagram id="cC4HJQdR35sUOMsxpErk" name="Page-1">
    <mxGraphModel dx="2062" dy="1122" grid="1" gridSize="10" guides="1" tooltips="1" connect="1" arrows="1" fold="1" page="1" pageScale="1" pageWidth="827" pageHeight="1169" math="0" shadow="0">
      <root>
        <mxCell id="0" />
        <mxCell id="1" parent="0" />
        <mxCell id="ouyXbws83FQorB-XkfHq-1" value="" style="endArrow=none;dashed=1;html=1;dashPattern=1 3;strokeWidth=2;rounded=0;strokeColor=#788AA3;fontColor=#46495D;" edge="1" parent="1">
          <mxGeometry width="50" height="50" relative="1" as="geometry">
            <mxPoint x="251" y="735" as="sourcePoint" />
            <mxPoint x="251" y="335" as="targetPoint" />
          </mxGeometry>
        </mxCell>
        <mxCell id="ouyXbws83FQorB-XkfHq-2" value="msg services&lt;br&gt;&lt;br&gt;（基于mailbox的消息类型&lt;br&gt;处理服务）" style="rounded=1;whiteSpace=wrap;html=1;fillColor=#B2C9AB;strokeColor=#788AA3;fontColor=#46495D;" vertex="1" parent="1">
          <mxGeometry x="371" y="485" width="156" height="100" as="geometry" />
        </mxCell>
        <mxCell id="ouyXbws83FQorB-XkfHq-3" value="" style="endArrow=none;dashed=1;html=1;dashPattern=1 3;strokeWidth=2;rounded=0;strokeColor=#788AA3;fontColor=#46495D;" edge="1" parent="1">
          <mxGeometry width="50" height="50" relative="1" as="geometry">
            <mxPoint x="641" y="735" as="sourcePoint" />
            <mxPoint x="641" y="335" as="targetPoint" />
          </mxGeometry>
        </mxCell>
        <mxCell id="ouyXbws83FQorB-XkfHq-5" value="" style="endArrow=classic;html=1;rounded=0;strokeColor=#788AA3;fontColor=#46495D;" edge="1" parent="1">
          <mxGeometry width="50" height="50" relative="1" as="geometry">
            <mxPoint x="261" y="526" as="sourcePoint" />
            <mxPoint x="360" y="526" as="targetPoint" />
            <Array as="points">
              <mxPoint x="310" y="526" />
            </Array>
          </mxGeometry>
        </mxCell>
        <mxCell id="ouyXbws83FQorB-XkfHq-6" value="" style="endArrow=classic;html=1;rounded=0;strokeColor=#788AA3;fontColor=#46495D;" edge="1" parent="1">
          <mxGeometry width="50" height="50" relative="1" as="geometry">
            <mxPoint x="361" y="550" as="sourcePoint" />
            <mxPoint x="261" y="550" as="targetPoint" />
          </mxGeometry>
        </mxCell>
        <mxCell id="ouyXbws83FQorB-XkfHq-7" value="" style="endArrow=classic;startArrow=classic;html=1;rounded=0;strokeColor=#788AA3;fontColor=#46495D;" edge="1" parent="1">
          <mxGeometry width="50" height="50" relative="1" as="geometry">
            <mxPoint x="530" y="532" as="sourcePoint" />
            <mxPoint x="634" y="532" as="targetPoint" />
          </mxGeometry>
        </mxCell>
        <mxCell id="ouyXbws83FQorB-XkfHq-9" value="msg_put" style="text;html=1;align=center;verticalAlign=middle;resizable=0;points=[];autosize=1;strokeColor=none;fillColor=none;fontColor=#46495D;" vertex="1" parent="1">
          <mxGeometry x="275" y="500" width="60" height="20" as="geometry" />
        </mxCell>
        <mxCell id="ouyXbws83FQorB-XkfHq-12" value="4" style="ellipse;whiteSpace=wrap;html=1;aspect=fixed;rounded=0;sketch=0;fontColor=#46495D;strokeColor=#788AA3;fillColor=#FFFFFF;" vertex="1" parent="1">
          <mxGeometry x="295" y="576" width="20" height="20" as="geometry" />
        </mxCell>
        <mxCell id="ouyXbws83FQorB-XkfHq-13" value="3" style="ellipse;whiteSpace=wrap;html=1;aspect=fixed;rounded=0;sketch=0;fontColor=#46495D;strokeColor=#788AA3;fillColor=#FFFFFF;" vertex="1" parent="1">
          <mxGeometry x="572" y="540" width="20" height="20" as="geometry" />
        </mxCell>
        <mxCell id="ouyXbws83FQorB-XkfHq-14" value="2" style="ellipse;whiteSpace=wrap;html=1;aspect=fixed;rounded=0;sketch=0;fontColor=#46495D;strokeColor=#788AA3;fillColor=#FFFFFF;" vertex="1" parent="1">
          <mxGeometry x="572" y="490" width="20" height="20" as="geometry" />
        </mxCell>
        <mxCell id="ouyXbws83FQorB-XkfHq-15" value="1" style="ellipse;whiteSpace=wrap;html=1;aspect=fixed;rounded=0;sketch=0;fontColor=#46495D;strokeColor=#788AA3;fillColor=#FFFFFF;" vertex="1" parent="1">
          <mxGeometry x="295" y="480" width="20" height="20" as="geometry" />
        </mxCell>
        <mxCell id="ouyXbws83FQorB-XkfHq-16" value="proc_callback" style="text;html=1;align=center;verticalAlign=middle;resizable=0;points=[];autosize=1;strokeColor=none;fillColor=none;fontColor=#46495D;" vertex="1" parent="1">
          <mxGeometry x="537" y="510" width="90" height="20" as="geometry" />
        </mxCell>
        <mxCell id="ouyXbws83FQorB-XkfHq-20" value="&lt;span style=&quot;text-align: left&quot;&gt;re_transfer_callback&lt;/span&gt;" style="text;html=1;align=center;verticalAlign=middle;resizable=0;points=[];autosize=1;strokeColor=none;fillColor=none;fontColor=#46495D;" vertex="1" parent="1">
          <mxGeometry x="251" y="556" width="120" height="20" as="geometry" />
        </mxCell>
        <mxCell id="ouyXbws83FQorB-XkfHq-21" value="execute cmd" style="rounded=1;whiteSpace=wrap;html=1;sketch=0;fillColor=#ffcccc;strokeColor=#36393d;" vertex="1" parent="1">
          <mxGeometry x="680" y="430" width="109" height="42" as="geometry" />
        </mxCell>
        <mxCell id="ouyXbws83FQorB-XkfHq-23" value="数据回传" style="rounded=1;whiteSpace=wrap;html=1;sketch=0;fillColor=#ffcccc;strokeColor=#36393d;" vertex="1" parent="1">
          <mxGeometry x="680" y="510" width="109" height="42" as="geometry" />
        </mxCell>
        <mxCell id="ouyXbws83FQorB-XkfHq-24" value=". . ." style="rounded=1;whiteSpace=wrap;html=1;sketch=0;fillColor=#ffcccc;strokeColor=#36393d;" vertex="1" parent="1">
          <mxGeometry x="680" y="590" width="109" height="38" as="geometry" />
        </mxCell>
        <mxCell id="ouyXbws83FQorB-XkfHq-26" value="" style="endArrow=none;dashed=1;html=1;dashPattern=1 3;strokeWidth=2;rounded=0;strokeColor=#788AA3;fontColor=#46495D;" edge="1" parent="1">
          <mxGeometry width="50" height="50" relative="1" as="geometry">
            <mxPoint x="132" y="735" as="sourcePoint" />
            <mxPoint x="132" y="335" as="targetPoint" />
          </mxGeometry>
        </mxCell>
        <mxCell id="ouyXbws83FQorB-XkfHq-27" value="usart" style="rounded=1;whiteSpace=wrap;html=1;sketch=0;fillColor=#fad7ac;strokeColor=#b46504;" vertex="1" parent="1">
          <mxGeometry x="146" y="424" width="90" height="30" as="geometry" />
        </mxCell>
        <mxCell id="ouyXbws83FQorB-XkfHq-28" value="usb" style="rounded=1;whiteSpace=wrap;html=1;sketch=0;fillColor=#fad7ac;strokeColor=#b46504;" vertex="1" parent="1">
          <mxGeometry x="146" y="474" width="90" height="30" as="geometry" />
        </mxCell>
        <mxCell id="ouyXbws83FQorB-XkfHq-29" value="BLE" style="rounded=1;whiteSpace=wrap;html=1;sketch=0;fillColor=#fad7ac;strokeColor=#b46504;" vertex="1" parent="1">
          <mxGeometry x="146" y="524" width="90" height="30" as="geometry" />
        </mxCell>
        <mxCell id="ouyXbws83FQorB-XkfHq-31" value="SPP" style="rounded=1;whiteSpace=wrap;html=1;sketch=0;fillColor=#fad7ac;strokeColor=#b46504;" vertex="1" parent="1">
          <mxGeometry x="146" y="574" width="90" height="30" as="geometry" />
        </mxCell>
        <mxCell id="ouyXbws83FQorB-XkfHq-32" value=". . ." style="rounded=1;whiteSpace=wrap;html=1;sketch=0;fillColor=#fad7ac;strokeColor=#b46504;" vertex="1" parent="1">
          <mxGeometry x="146" y="624" width="90" height="30" as="geometry" />
        </mxCell>
        <mxCell id="ouyXbws83FQorB-XkfHq-34" value="APP" style="rounded=0;whiteSpace=wrap;html=1;sketch=0;strokeColor=#6c8ebf;fillColor=#dae8fc;gradientColor=#7ea6e0;" vertex="1" parent="1">
          <mxGeometry x="40" y="443" width="60" height="54" as="geometry" />
        </mxCell>
        <mxCell id="ouyXbws83FQorB-XkfHq-35" value="上位机" style="rounded=0;whiteSpace=wrap;html=1;sketch=0;fillColor=#dae8fc;strokeColor=#6c8ebf;gradientColor=#7ea6e0;" vertex="1" parent="1">
          <mxGeometry x="26" y="608" width="80" height="42" as="geometry" />
        </mxCell>
        <mxCell id="ouyXbws83FQorB-XkfHq-37" value="" style="shape=parallelogram;perimeter=parallelogramPerimeter;whiteSpace=wrap;html=1;fixedSize=1;rounded=0;sketch=0;strokeColor=#6c8ebf;fillColor=#dae8fc;rotation=-105;gradientColor=#7ea6e0;" vertex="1" parent="1">
          <mxGeometry x="32.260000000000005" y="549.99" width="57.85" height="78.99" as="geometry" />
        </mxCell>
        <mxCell id="ouyXbws83FQorB-XkfHq-38" value="上层" style="text;html=1;align=center;verticalAlign=middle;resizable=0;points=[];autosize=1;strokeColor=none;fillColor=none;fontColor=#46495D;" vertex="1" parent="1">
          <mxGeometry x="46" y="350" width="40" height="20" as="geometry" />
        </mxCell>
        <mxCell id="ouyXbws83FQorB-XkfHq-39" value="通路层" style="text;html=1;align=center;verticalAlign=middle;resizable=0;points=[];autosize=1;strokeColor=none;fillColor=none;fontColor=#46495D;" vertex="1" parent="1">
          <mxGeometry x="166" y="350" width="50" height="20" as="geometry" />
        </mxCell>
        <mxCell id="ouyXbws83FQorB-XkfHq-40" value="服务层" style="text;html=1;align=center;verticalAlign=middle;resizable=0;points=[];autosize=1;strokeColor=none;fillColor=none;fontColor=#46495D;" vertex="1" parent="1">
          <mxGeometry x="424" y="350" width="50" height="20" as="geometry" />
        </mxCell>
        <mxCell id="ouyXbws83FQorB-XkfHq-42" value="业务逻辑层" style="text;html=1;align=center;verticalAlign=middle;resizable=0;points=[];autosize=1;strokeColor=none;fillColor=none;fontColor=#46495D;" vertex="1" parent="1">
          <mxGeometry x="694.5" y="350" width="80" height="20" as="geometry" />
        </mxCell>
      </root>
    </mxGraphModel>
  </diagram>
</mxfile>
